<?xml version="1.0" encoding="utf-8"?>
<!-- Generator: Adobe Illustrator 19.0.0, SVG Export Plug-In . SVG Version: 6.00 Build 0)  -->
<svg version="1.1" id="Layer_1" xmlns="http://www.w3.org/2000/svg" xmlns:xlink="http://www.w3.org/1999/xlink" x="0px" y="0px"
	 viewBox="0 0 1400 1400" style="enable-background:new 0 0 1400 1400;" xml:space="preserve">
<style type="text/css">
	.st0{fill-rule:evenodd;clip-rule:evenodd;fill:#999DFF;}
	.st1{fill-rule:evenodd;clip-rule:evenodd;fill:#5F1AF9;}
	.st2{fill-rule:evenodd;clip-rule:evenodd;fill:#735CFF;}
	.st3{fill-rule:evenodd;clip-rule:evenodd;fill:#613FFD;}
	.st4{fill-rule:evenodd;clip-rule:evenodd;fill:#001D73;}
	.st5{fill-rule:evenodd;clip-rule:evenodd;fill:#4200CB;}
	.st6{fill-rule:evenodd;clip-rule:evenodd;fill:#542DE2;}
	.st7{fill-rule:evenodd;clip-rule:evenodd;fill:#756AFF;}
	.st8{fill-rule:evenodd;clip-rule:evenodd;fill:#3A00A9;}
	.st9{fill-rule:evenodd;clip-rule:evenodd;fill:#5000F7;}
	.st10{fill-rule:evenodd;clip-rule:evenodd;fill:#7364FF;}
</style>
<symbol  id="New_Symbol" viewBox="-330.7 -573.2 661.3 1146.4">
	<polygon class="st0" points="-330.7,88.7 203.2,-221.6 163.8,-385.7 	"/>
	<polygon class="st1" points="-330.7,88.7 204.1,397.4 326.8,281.7 	"/>
	<polygon class="st1" points="-330.7,88.7 -71.7,-449.1 163.8,-385.7 	"/>
	<polygon class="st0" points="-330.7,88.7 264.7,45.8 326.8,281.7 	"/>
	<polygon class="st1" points="-330.7,88.7 36.9,-389.5 -153.3,-573.2 	"/>
	<polygon class="st0" points="-330.7,88.7 267,169.7 330.7,-90.6 	"/>
	<polygon class="st2" points="-330.7,88.7 36.9,-389.5 261.7,-255.7 	"/>
	<polygon class="st3" points="-330.7,88.7 267,169.7 262.7,431.3 	"/>
	<polygon class="st4" points="-330.7,88.7 36.9,-389.5 -6.7,-431.6 -71.7,-449.1 	"/>
	<polygon class="st5" points="-330.7,88.7 -170.5,-509.2 -32.8,-425.5 	"/>
	<polygon class="st6" points="-330.7,88.7 266.7,-73.3 263.5,91.3 	"/>
	<polygon class="st5" points="-330.7,88.7 -32.8,-425.5 36.9,-389.5 90.6,-331.8 	"/>
	<polygon class="st5" points="-330.7,88.7 203.2,-221.6 90.6,-331.8 	"/>
	<polygon class="st6" points="-330.7,88.7 204.1,397.4 243.6,244.9 	"/>
	<polygon class="st6" points="-330.7,88.7 -241.2,-244.1 -32.8,-301.4 -32.1,-84.9 	"/>
	<polygon class="st5" points="-330.7,88.7 2,-1.2 155.9,153 -31.6,261.4 	"/>
	<polygon class="st7" points="34.7,-123.7 90.6,-331.8 -32.8,-301.4 -32.1,-84.9 	"/>
	<polygon class="st8" points="35.3,300 243.6,244.9 155.9,153 -31.6,261.4 	"/>
	<polygon class="st8" points="-221.8,-317.8 -32.8,-425.5 -32.8,-301.4 -242,-242.3 	"/>
	<polygon class="st7" points="75.5,-21.4 263.5,91.3 155.9,153 2,-1.2 	"/>
	<polygon class="st0" points="-330.7,88.7 153.8,573.2 204.1,397.4 	"/>
	<polygon class="st1" points="-330.7,88.7 330.7,-90.6 203.2,-221.6 	"/>
	<polygon class="st2" points="-330.7,88.7 107,526.3 262.7,431.3 	"/>
	<polygon class="st3" points="-330.7,88.7 266.7,-73.3 261.7,-255.7 	"/>
	<polygon class="st7" points="-330.7,88.7 107,526.3 179.5,483.3 204.1,397.4 	"/>
	<polygon class="st8" points="-330.7,88.7 266.7,-73.3 265.5,-157.6 202.5,-222.9 	"/>
	<polygon class="st6" points="-330.7,88.7 -33.1,386.2 -31.3,261.5 	"/>
	<polygon class="st9" points="-330.7,88.7 75.5,-21.4 -31.8,-85 	"/>
	<polygon class="st5" points="-330.7,88.7 -86.7,332.7 35.3,300 	"/>
	<polygon class="st6" points="-330.7,88.7 2.4,-1.6 35,-125 	"/>
	<polygon class="st8" points="-330.7,88.7 -87.2,332.5 -32,317.3 -31.6,261.4 	"/>
	<polygon class="st10" points="-330.7,88.7 2,-1.2 16.8,-56.2 -32.1,-85.8 	"/>
	<polygon class="st6" points="155.9,153 243.6,244.9 267,169.7 263.5,91.3 	"/>
	<polygon class="st7" points="267,169.7 281.8,110.9 265.8,0.8 263.5,91.3 	"/>
</symbol>
<use xlink:href="#New_Symbol"  width="661.3" height="1146.4" id="XMLID_1_" x="-330.7" y="-573.2" transform="matrix(1 0 0 -1 1007.7983 773.8472)" style="overflow:visible;"/>
<use xlink:href="#New_Symbol"  width="661.3" height="1146.4" x="-330.7" y="-573.2" transform="matrix(-0.5 -0.866 -0.866 0.5 588.5989 354.4873)" style="overflow:visible;"/>
<use xlink:href="#New_Symbol"  width="661.3" height="1146.4" id="XMLID_2_" x="-330.7" y="-573.2" transform="matrix(-0.5 0.866 0.866 0.5 435.021 927.2138)" style="overflow:visible;"/>
</svg>
